<svg xmlns="http://www.w3.org/2000/svg" xmlns:xlink="http://www.w3.org/1999/xlink" width="20" height="20"><defs><path id="A" d="M0 .934h19.777V20H0z"/></defs><g fill="none" fill-rule="evenodd"><path fill="#6ed587" d="M18.177 14.18a.396.396 0 0 0-.506-.234l-4.098 1.513a.393.393 0 0 0 .273.739l4.097-1.512a.394.394 0 0 0 .234-.506m-5.224 1.928a.394.394 0 0 0-.505-.234l-.174.065a.393.393 0 0 0 .136.764.37.37 0 0 0 .136-.026l.173-.063a.392.392 0 0 0 .234-.506m5.224-3.533a.396.396 0 0 0-.506-.234l-3.238 1.196a.393.393 0 1 0 .273.738l3.237-1.194a.394.394 0 0 0 .234-.506m0-1.59a.396.396 0 0 0-.506-.234l-3.238 1.195a.394.394 0 1 0 .273.74l3.237-1.195a.394.394 0 0 0 .234-.506"/><g transform="translate(0 -.684)"><mask id="B" fill="#fff"><use xlink:href="#A"/></mask><path fill="#6ed587" d="M18.99 15.828l-8.706 3.213V8.6l8.706-3.213v10.43zm-9.1-7.913l-1.546-.57L11.6 6.14a.393.393 0 0 0 0-.739l-4.255-1.57a.396.396 0 0 0-.273 0L2.95 5.354 1.533 4.83 9.89 1.748l8.356 3.083L9.9 7.914zM4.093 5.773L7.2 4.623l3.116 1.15L7.2 6.923l-3.117-1.15zM6.815 7.62v4.208L3.35 10.55V6.343l3.466 1.28zm2.68 11.42L.788 15.828V5.397l1.772.654v4.774c0 .163.104.312.258.368l4.255 1.572a.402.402 0 0 0 .362-.048.397.397 0 0 0 .169-.322V7.912l1.9.698.001 10.43zM19.52 4.462L10.025.958a.393.393 0 0 0-.272 0L.258 4.462A.392.392 0 0 0 0 4.831v11.272c0 .165.102.313.257.37l9.495 3.503a.367.367 0 0 0 .272-.001l9.495-3.502a.396.396 0 0 0 .258-.37V4.83a.393.393 0 0 0-.258-.369z" mask="url(#B)"/></g></g></svg>